<svg width="53" height="53" viewBox="0 0 53 53" fill="none" xmlns="http://www.w3.org/2000/svg">
<path fill-rule="evenodd" clip-rule="evenodd" d="M34.7261 48.5833V31.4798H40.4678L41.3268 24.815H34.7239V20.5595C34.7239 18.6295 35.2605 17.3133 38.0298 17.3133H41.5587V11.3508C39.8497 11.1689 38.132 11.0805 36.4133 11.0858C31.3253 11.0858 27.8427 14.1929 27.8427 19.897V24.815H22.0834V31.4798H27.8405V48.5833H6.85475C5.50766 48.5833 4.41675 47.4924 4.41675 46.1453V6.85463C4.41675 5.50754 5.50766 4.41663 6.85475 4.41663H46.1454C47.4925 4.41663 48.5834 5.50754 48.5834 6.85463V46.1453C48.5834 47.4924 47.4925 48.5833 46.1454 48.5833H34.7261Z" fill="white"/>
</svg>
