<svg width="53" height="53" viewBox="0 0 53 53" fill="none" xmlns="http://www.w3.org/2000/svg">
<path d="M17.2251 4.41663H35.7751C42.8418 4.41663 48.5834 10.1583 48.5834 17.225V35.775C48.5834 39.1719 47.234 42.4298 44.8319 44.8318C42.4299 47.2339 39.1721 48.5833 35.7751 48.5833H17.2251C10.1584 48.5833 4.41675 42.8416 4.41675 35.775V17.225C4.41675 13.828 5.76619 10.5701 8.16822 8.1681C10.5703 5.76607 13.8281 4.41663 17.2251 4.41663ZM16.7834 8.83329C14.6749 8.83329 12.6528 9.67088 11.1619 11.1618C9.671 12.6527 8.83342 14.6748 8.83342 16.7833V36.2166C8.83342 40.6112 12.3888 44.1666 16.7834 44.1666H36.2167C38.3252 44.1666 40.3473 43.329 41.8383 41.8381C43.3292 40.3472 44.1668 38.3251 44.1668 36.2166V16.7833C44.1668 12.3887 40.6113 8.83329 36.2167 8.83329H16.7834ZM38.0938 12.1458C38.8259 12.1458 39.5281 12.4366 40.0457 12.9543C40.5634 13.472 40.8543 14.1741 40.8543 14.9062C40.8543 15.6383 40.5634 16.3404 40.0457 16.8581C39.5281 17.3758 38.8259 17.6666 38.0938 17.6666C37.3617 17.6666 36.6596 17.3758 36.1419 16.8581C35.6242 16.3404 35.3334 15.6383 35.3334 14.9062C35.3334 14.1741 35.6242 13.472 36.1419 12.9543C36.6596 12.4366 37.3617 12.1458 38.0938 12.1458ZM26.5001 15.4583C29.4285 15.4583 32.237 16.6216 34.3077 18.6923C36.3784 20.763 37.5418 23.5715 37.5418 26.5C37.5418 29.4284 36.3784 32.2369 34.3077 34.3076C32.237 36.3783 29.4285 37.5416 26.5001 37.5416C23.5717 37.5416 20.7632 36.3783 18.6924 34.3076C16.6217 32.2369 15.4584 29.4284 15.4584 26.5C15.4584 23.5715 16.6217 20.763 18.6924 18.6923C20.7632 16.6216 23.5717 15.4583 26.5001 15.4583ZM26.5001 19.875C24.743 19.875 23.0579 20.5729 21.8155 21.8154C20.5731 23.0578 19.8751 24.7429 19.8751 26.5C19.8751 28.257 20.5731 29.9421 21.8155 31.1845C23.0579 32.427 24.743 33.125 26.5001 33.125C28.2571 33.125 29.9422 32.427 31.1847 31.1845C32.4271 29.9421 33.1251 28.257 33.1251 26.5C33.1251 24.7429 32.4271 23.0578 31.1847 21.8154C29.9422 20.5729 28.2571 19.875 26.5001 19.875Z" fill="white"/>
</svg>
