<svg width="50" height="50" viewBox="0 0 50 50" fill="none" xmlns="http://www.w3.org/2000/svg">
<path d="M25 50C38.8071 50 50 38.8071 50 25C50 11.1929 38.8071 0 25 0C11.1929 0 0 11.1929 0 25C0 33.519 4.26101 41.0428 10.768 45.5564C10.987 44.4542 11.169 43.5765 11.4473 42.5985C9.2113 38.8443 8.37419 35.0673 8.75019 31.4757C9.14772 27.6784 10.886 24.2295 13.503 21.343C18.7108 15.5988 27.4917 11.953 36.9879 11.8576C38.2128 11.8453 39.1346 12.885 39.0643 14.0462C38.4966 23.4235 37.35 30.8018 33.5751 35.9014C29.8505 40.933 23.8558 43.414 14.626 44.0037C14.4267 44.7726 14.2731 45.5462 14.0567 46.6395L13.9043 47.409C17.2476 49.0676 21.0149 50 25 50Z" fill="white"/>
<path d="M16.0489 23.6511C20.2445 19.0234 27.4183 15.7708 35.5363 15.3406C34.9326 23.9625 33.7436 29.898 30.813 33.8568C28.1171 37.4988 23.7072 39.7473 15.8755 40.4611C17.2533 37.4044 19.4459 34.4699 23.3273 30.9046C24.0262 30.2626 24.0723 29.1757 23.4304 28.4768C22.7884 27.778 21.7015 27.7318 21.0026 28.3738C17.1595 31.9038 14.7309 34.9921 13.1183 38.254C12.2271 36.0027 11.9572 33.8466 12.1679 31.8335C12.4772 28.8794 13.837 26.0908 16.0489 23.6511Z" fill="white"/>
</svg>
