<svg width="49" height="49" viewBox="0 0 49 49" fill="none" xmlns="http://www.w3.org/2000/svg">
<g clip-path="url(#clip0_5_57)">
<path fill-rule="evenodd" clip-rule="evenodd" d="M11.4844 0H37.5156C43.8583 0 49 5.14173 49 11.4844V37.5156C49 43.8583 43.8583 49 37.5156 49H11.4844C5.14173 49 0 43.8583 0 37.5156V11.4844C0 5.14173 5.14173 0 11.4844 0ZM38.2204 18.4108C38.2204 18.1042 38.2204 17.8004 38.1993 17.4966C39.5835 16.4956 40.778 15.2558 41.7266 13.8352C40.437 14.4077 39.0686 14.7828 37.6674 14.9479C39.1428 14.0645 40.247 12.6752 40.7747 11.0386C39.387 11.8617 37.869 12.442 36.286 12.7545C33.6098 9.90909 29.1322 9.77186 26.2852 12.4481C25.383 13.2963 24.7193 14.3664 24.3605 15.5516C24.0016 16.7367 23.9602 17.9953 24.2405 19.2015C21.4301 19.061 18.6807 18.331 16.1709 17.0587C13.661 15.7864 11.4469 14.0004 9.67233 11.8166C7.79693 15.0472 8.75435 19.1791 11.8601 21.2549C10.7354 21.2212 9.63518 20.9178 8.65214 20.3702V20.4598C8.65214 23.8247 11.0246 26.722 14.3222 27.3883C13.2818 27.6726 12.19 27.7142 11.131 27.51C11.5829 28.9144 12.4622 30.1425 13.6462 31.0226C14.8302 31.9027 16.2596 32.3908 17.7346 32.4187C15.2311 34.3851 12.1393 35.4528 8.9559 35.4503C8.39316 35.449 7.83196 35.4155 7.27344 35.3483C10.5061 37.4226 14.2675 38.5226 18.1084 38.5171V38.5228C31.11 38.5228 38.2204 27.7508 38.2204 18.4108Z" fill="white"/>
</g>
<defs>
<clipPath id="clip0_5_57">
<rect width="49" height="49" fill="white"/>
</clipPath>
</defs>
</svg>
